name C:\Users\antoi\Documents\MyRepositories\upper-imu-dc\Results\main_tracking\Case_82\kinematics.mot
datacolumns 10
datarows 23
range 4.62000000 4.84000000
endheader 
time	clav_prot	clav_elev	scapula_abduction	scapula_elevation	scapula_upward_rot	scapula_winging	plane_elv	shoulder_elv	axial_rot	
          4.62000000	        -10.73512998	        -27.66865564	         29.14127637	        -26.22695347	         38.94721907	         15.95195758	        -48.16887909	        104.47808829	         18.18522084	
          4.63000000	        -10.82665601	        -27.65864214	         29.14022262	        -26.24356508	         39.14010084	         15.96636055	        -47.87193418	        104.76642599	         18.36069708	
          4.64000000	        -10.92091804	        -27.64725558	         29.13846094	        -26.25957005	         39.33809827	         15.97989073	        -47.57060645	        105.04573888	         18.54436476	
          4.65000000	        -11.01784644	        -27.63458363	         29.13590363	        -26.27499012	         39.54091998	         15.99262965	        -47.26499158	        105.31605132	         18.73634669	
          4.66000000	        -11.11740258	        -27.62066014	         29.13251576	        -26.28982241	         39.74842651	         16.00459890	        -46.95520818	        105.57733608	         18.93656410	
          4.67000000	        -11.21958329	        -27.60551379	         29.12831874	        -26.30407660	         39.96062804	         16.01581883	        -46.64142355	        105.82953899	         19.14471833	
          4.68000000	        -11.32442114	        -27.58918762	         29.12338698	        -26.31778849	         40.17767355	         16.02633230	        -46.32385172	        106.07258265	         19.36030417	
          4.69000000	        -11.43197289	        -27.57173635	         29.11784159	        -26.33101330	         40.39981875	         16.03619877	        -46.00273436	        106.30636847	         19.58265011	
          4.70000000	        -11.54230612	        -27.55322481	         29.11183800	        -26.34381904	         40.62738224	         16.04548986	        -45.67831989	        106.53078407	         19.81097613	
          4.71000000	        -11.65548455	        -27.53372381	         29.10555178	        -26.35627756	         40.86069756	         16.05428170	        -45.35084233	        106.74571261	         20.04446025	
          4.72000000	        -11.77155359	        -27.51330438	         29.09916380	        -26.36845483	         41.10006571	         16.06264531	        -45.02050196	        106.95104262	         20.28230372	
          4.73000000	        -11.89052800	        -27.49203176	         29.09284575	        -26.38040187	         41.34571281	         16.07063755	        -44.68744896	        107.14667658	         20.52378825	
          4.74000000	        -12.01238270	        -27.46995994	         29.08674640	        -26.39214733	         41.59775532	         16.07829321	        -44.35177054	        107.33253706	         20.76832109	
          4.75000000	        -12.13704709	        -27.44712698	         29.08097927	        -26.40369205	         41.85617437	         16.08561915	        -44.01348299	        107.50857042	         21.01546515	
          4.76000000	        -12.26440355	        -27.42355381	         29.07561729	        -26.41500814	         42.12080669	         16.09259299	        -43.67253442	        107.67474905	         21.26494820	
          4.77000000	        -12.39428943	        -27.39924590	         29.07069315	        -26.42604179	         42.39134941	         16.09916568	        -43.32881663	        107.83107298	         21.51665464	
          4.78000000	        -12.52650171	        -27.37419558	         29.06619819	        -26.43671715	         42.66736803	         16.10526574	        -42.98217797	        107.97757113	         21.77061238	
          4.79000000	        -12.66080391	        -27.34838667	         29.06208358	        -26.44694249	         42.94831137	         16.11080666	        -42.63243982	        108.11430372	         22.02697187	
          4.80000000	        -12.79693495	        -27.32180014	         29.05826551	        -26.45661793	         43.23353520	         16.11569550	        -42.27941557	        108.24136549	         22.28597653	
          4.81000000	        -12.93461874	        -27.29441957	         29.05463235	        -26.46564317	         43.52232982	         16.11984155	        -41.92292872	        108.35888991	         22.54792906	
          4.82000000	        -13.07357374	        -27.26623590	         29.05105349	        -26.47392455	         43.81394972	         16.12316371	        -41.56282832	        108.46705380	         22.81315622	
          4.83000000	        -13.21352160	        -27.23725058	         29.04738877	        -26.48138047	         44.10764254	         16.12559591	        -41.19899973	        108.56608162	         23.08197511	
          4.84000000	        -13.35419433	        -27.20747681	         29.04349844	        -26.48794485	         44.40267618	         16.12708959	        -40.83137032	        108.65624813	         23.35466302	
